<?xml version="1.0" encoding="UTF-8"?>
<svg id="Layer_1" xmlns="http://www.w3.org/2000/svg" version="1.1" viewBox="0 0 606.75 204.53">
  <!-- Generator: Adobe Illustrator 30.1.0, SVG Export Plug-In . SVG Version: 2.1.1 Build 136)  -->
  <defs>
    <style>
      .st0 {
        fill: #ff0080;
      }
    </style>
  </defs>
  <path d="M24.58,204.53c-10.78.08-18.14-2.69-21.86-8.23-3.51-5.22-3.62-12.64-.35-22.04l5.88-16.9,10.4-9.14,19.28-55.87,10-8.7c-2.22-1.98-3.65-5.57-1.72-12.05l.2-.67,7.95-6.89c-2.65-2.56-3.24-5.96-1.8-10.35,1.08-3.3,3.04-6.2,5.82-8.6l20.32-17.53h0c4.11-3.55,9.71-5.71,16.22-6.26,1.11-.09,2.17-.14,3.14-.14,4.92,0,8.32,1.21,10.14,3.62l4.9-4.26,15.64-1.32-1.75,5.83,7.22-6.29,15.39-1.29h0s17.5-1.48,17.5-1.48c.94-.08,1.84-.12,2.69-.12,3.74,0,6.51.82,8.27,2.44l4.07-3.59,28.19-2.39h0s16.71-1.41,16.71-1.41c.84-.07,1.66-.11,2.42-.11,4.07,0,6.96,1.03,8.6,3.06.62.77,1.05,1.65,1.28,2.65l3.89-3.48h0c3.45-3.08,7.89-4.86,13.21-5.31.84-.07,1.65-.11,2.41-.11,6,0,9.62,2.33,10.66,6.79l4.38-3.94h0c3.44-3.1,7.92-4.9,13.29-5.35.77-.07,1.53-.1,2.24-.1,4.23,0,7.29,1.16,9.14,3.47l4.4-3.99,13.82-1.16c.77-.07,1.5-.1,2.19-.1,3.78,0,6.59.99,8.39,2.94l4.52-4.12,24.22-2.05-2.43,10.52-4.12,3.79,2.39-.22-2.23,9.63-4.83,4.44,5.3-.53-2.48,10.77-8.13,7.51-4.56,19.67-17.04,15.81,11.18-1.43,9.07-20.55,19.73-18.3,31.85-3.45.35,22.3c.31-.31.62-.62.93-.91l18.56-17.44h.01c6.09-5.71,14.12-9.24,23.29-10.23,1.8-.19,3.53-.29,5.15-.29,7.13,0,12.32,1.97,15.48,5.89l7.39-7.02,23.13-2.51-1.88,10.88,12.59-12.05,22.32-2.4-1.39,8.68,4.81-4.64h0c4.68-4.5,10.84-7.11,18.83-7.97,1.55-.16,3-.24,4.33-.24,9.05,0,14.4,3.69,15.99,11.01l7.7-7.51h0c4.84-4.72,10.89-7.49,17.99-8.25,1.47-.16,2.87-.24,4.16-.24,5.77,0,10.15,1.58,13.01,4.72,3.51,3.84,4.77,9.86,3.87,18.43l-.08.71-7.11,7.03c1.96,1.56,3.36,3.81,4.18,6.71l.32,1.13-3.62,3.6c.27,2.81.17,6.1-.29,9.81l-.56,4.65c-1.15,9.25-4.39,16.6-9.65,21.86l.02.02-17.8,17.79c-1.8,1.8-3.86,3.38-6.13,4.69-3.74,2.16-8.15,3.67-13.11,4.47-1.96.31-3.7.46-5.33.47-5.68.03-10.1-1.69-13.18-5.11l-7.27,7.2-49.48,7.91-21.73,3.48,1.94-11.12-13.3,12.94-24.48,3.92,2.05-10.89-5.47,5.28c-6.39,6.17-15,10.27-24.91,11.87-2.65.43-5.15.65-7.43.66-5.38.03-9.69-1.17-12.86-3.55l-5.54,5.3-27.46,4.39.73-11.19-9.08,1.4-14.15,13.39-26.64,4.26-57.24,9.16h0s-58.47,9.35-58.47,9.35l.33-1.19-1.5,1.38-33.75,5.4-1.86-15.21-20.72,18.83-32.95,5.27,5.69-18.11-11.27,10.14c-1.22,1.1-2.52,2.17-3.86,3.18-.67.51-1.36,1-2.06,1.48-1.39.96-2.86,1.89-4.36,2.76-8.3,4.8-18.26,8.16-29.59,9.98-4.66.76-8.98,1.15-12.86,1.18ZM60.23,150.01c-.96,2.91-1.08,5.12-.35,6.39.19.32.44.6.76.82l2.72-8.3,9.7-8.62,17.43-53.67,4.86-4.27c-.52.02-1.02.04-1.51.04-1.54,0-2.95-.11-4.22-.35l-17.36,52.8-9.91,8.79-2.12,6.37ZM232.38,129.65l10.3-1.52,1.81-6.98,7.58-6.98,11.95-46.51,9.86-9,.47-1.85-2.83,2.59c-3.43,3.13-7.89,5.01-13.26,5.59-.99.11-1.94.16-2.81.16h-.06s-11.48,43.51-11.48,43.51l-7.85,7.21-3.67,13.78ZM299.28,119.77l7.56-1.12,3.43-7.72,8.91-8.32.29-.65-14.11,13.18-1.33.21-4.74,4.42ZM502.26,88.9c2.28-2.88,4.21-5.58,5.87-8.23l.14-.22,8.43-8.22c.44-1.01.84-2.02,1.2-3.02l-6.53,6.36-7.02.38-2.1,12.95ZM180.79,75.08l3.26-2.92-3.57.38.32,2.54ZM152.37,59.05l-5.59,4.96,5.82-.63,1.77-6.14-.98.86c-.3.26-.62.52-.97.79l-.05.16Z"/>
  <path class="st0" d="M604.47,37.69l-17.2,4.04c.78-7.02-.82-8.99-3.51-8.99-.25,0-.51.02-.78.05-4.17.49-7.14,4.65-8.46,14.46l-.61,4.54c4.37-3.86,9.01-5.99,14.08-6.63.96-.12,1.88-.18,2.75-.18,5.74,0,9.29,2.61,10.78,7.91l-4.05.62c.93,3.31,1.07,7.66.38,13.14l-.57,4.66c-2.09,16.76-11.08,26.58-26.99,29.13-1.78.28-3.43.43-4.98.43-13.37.05-18.46-10.22-15.46-31.07l1.32-9.22-3.82.58c-4.53,8.82-11.46,17.47-21.45,26.84l.1.99c2.76-.7,5.32-1.2,8.36-1.66l12.14-1.79-2.51,17.53-45.79,7.27,2.47-15.33c13.01-12.29,21.68-22.12,27.16-30.87l4.42-.67c4.18-6.73,6.51-12.86,7.43-19.01.64-4.23-.24-6.22-2.6-6.22-.18,0-.36,0-.55.04-3.92.46-6.15,3.96-8.03,17.83l-17.79.95c3.41-24.1,12.43-33.36,28.83-35.13,1.45-.15,2.82-.23,4.11-.23,11.15,0,16.07,5.89,14.15,19.43-.96,6.78-2.95,13.14-6.14,19.38l3.79-.58.76-5.39c3.31-23.36,13.27-35.88,29.36-37.61,1.39-.15,2.7-.23,3.95-.23,11.1,0,16.52,6.06,14.93,21.02ZM575.89,61.12c-4.1.56-6.37,3.18-7.26,9.64l-.64,4.69c-.8,5.92.43,8.23,3.65,8.22.39,0,.8-.04,1.24-.1,4.13-.62,6.39-3.29,7.26-9.86l.6-4.66c.75-5.76-.49-8.02-3.72-8.01-.36,0-.74.03-1.14.08"/>
  <polygon class="st0" points="514.77 26.12 508.19 67.11 503.63 67.81 496.69 110.56 476.66 113.74 482.73 78.01 468.33 79.98 461.98 116.07 441.09 119.39 449.05 76.13 453.9 75.39 461.83 31.85 481.71 29.7 476.23 61.25 490.41 59.45 495.68 28.17 514.77 26.12"/>
  <polygon class="st0" points="353.58 2.17 351.86 9.6 340.48 10.62 338.92 17.28 349.39 16.3 347.88 22.79 337.38 23.81 335.67 31.08 347.62 29.88 345.86 37.47 324.14 39.76 332.66 3.94 353.58 2.17"/>
  <path class="st0" d="M438.01,33.08c14.18-.02,19.28,7.93,16.49,24.23l-18.5,4.27c1.51-8.46-.04-11.76-4.88-11.75-.48,0-.99.03-1.53.09-3.93.47-7.15,3.33-7.84,6.81-.62,3.17.44,5.6,8.11,9.33l7.26,3.56c3.5,1.72,7.21,3.57,9.77,6.85l-4.91.74c2.74,3.48,4.16,8.61,2.62,17.01-3.14,17.02-15.77,28.82-34.39,31.79-2.56.41-4.91.61-7.06.62-14.3.07-19.6-8.69-16.24-26.38l21.17-5.41c-1.58,9.79-.23,13.51,4.71,13.49.58,0,1.21-.05,1.89-.15,4.69-.7,7.79-3.92,8.56-7.9.89-4.61-1.26-7.15-8.48-10.81l-7.27-3.66c-1.56-.79-3.11-1.64-4.59-2.66l5.15-.77c-5.41-3.7-9.51-9.4-7.01-21.13,3.27-15.75,15.54-26.12,32.05-27.89,1.75-.19,3.4-.28,4.93-.28Z"/>
  <path class="st0" d="M318.82,5.2c7.75,0,10.35,4.49,8.1,13.91l-1.37,5.72c-2.45,10.27-8.08,15.63-17.54,16.63l-13.3,1.41,9.01-36.47,13.08-1.1c.71-.06,1.38-.09,2.01-.09ZM317.75,17.11c.73-3-.11-4.46-2.59-4.46-.21,0-.44.01-.68.03l-2.63.23-5.21,21.37,2.66-.28c3.03-.3,4.84-2,5.64-5.3l2.81-11.6"/>
  <path class="st0" d="M289.25,6.98c8.16,0,10.92,4.72,8.49,14.5l-1.62,6.55c-2.63,10.65-8.68,16.32-18.59,17.37-.91.1-1.76.15-2.57.15-8.09.01-10.77-4.81-8.24-14.67l1.72-6.67c2.76-10.75,8.87-16.31,18.76-17.14.72-.06,1.41-.09,2.06-.09ZM288.01,20.42c1-3.95.26-5.86-2.22-5.85-.16,0-.32,0-.49.02-2.89.26-4.84,2.4-5.91,6.63l-2.8,11.06c-.95,3.72-.18,5.53,2.27,5.53.19,0,.38-.01.58-.03,2.92-.3,4.81-2.37,5.81-6.36l2.75-11"/>
  <path class="st0" d="M258.66,9.59c7.74,0,10.69,4.02,8.34,13.46l-10.31,2.23c1.57-6.07.92-8.06-1.56-8.06-.15,0-.32,0-.48.02-2.73.24-4.59,2.36-5.68,6.48l-2.99,11.4c-1.03,3.92-.38,5.83,1.99,5.83.17,0,.34,0,.52-.03,2.61-.26,4.71-2.58,6.62-9.59l9.68.94c-2.91,10.58-9.32,15.48-18.58,16.46-.91.1-1.77.15-2.57.15-8.16.01-10.6-4.9-7.92-14.96l1.83-6.87c2.9-10.9,8.99-16.51,18.87-17.35.78-.07,1.53-.1,2.24-.1Z"/>
  <path class="st0" d="M388.52,85.36l-5.26.79.6,42.32-24.19,3.84.66-11.06-21.69,3.31-4.41,11.79-22.91,3.63.4-1.7,19.48-44.19,5.59-.86,22-50.21,29.04-3.15.7,45.48ZM366.75,88.68l.24-6.27c.26-6.48.71-13.03,1.73-20.18l-1.31.16c-2.08,7.28-4.47,14.09-7.13,20.9l-2.65,6.78-5.44.83-6.13,15.58,14.67-2.1.62-14.87,5.4-.82"/>
  <path class="st0" d="M229.25,12.79c6.72,0,9.35,3.02,7.84,8.69l-.31,1.19c-1.2,4.51-4.48,7.61-9.27,8.75l-.14.51c3.59.63,4.32,1.97,3.85,6.31l-.46,4.35c-.46,4.35-.11,5.46.74,6.2l-.32.78-11.7,1.24c-.49-1.15-.33-2.94.28-6.62l.57-3.66c.55-3.31.23-4.46-1.83-4.45-.22,0-.46.01-.71.04l-2.41.23-4.17,15.34-11.22,1.18,10.63-38.58,16.4-1.39c.79-.07,1.54-.1,2.24-.1ZM226.11,23.37c.48-1.82-.04-2.65-1.69-2.65-.17,0-.35,0-.54.03l-4.36.38-2.12,7.77,4.39-.4c2.08-.2,3.25-1.18,3.79-3.2l.53-1.93"/>
  <polygon class="st0" points="207.64 14.53 205.39 22.65 191.92 23.85 189.87 31.14 202.28 29.98 200.32 37.08 187.86 38.29 185.62 46.26 199.81 44.82 197.52 53.13 171.7 55.85 182.85 16.63 207.64 14.53"/>
  <polygon class="st0" points="337.65 45.33 333.17 64.64 304.62 68.04 300.33 85.71 326.79 82.31 323.79 95.22 318.13 96.09 317.11 100.42 290.23 104.12 285.39 123.9 316.14 119.35 311.72 138.28 310.94 140.04 254.51 149.01 265.98 104.04 271.97 103.12 285.14 51.01 337.65 45.33"/>
  <path class="st0" d="M169.56,17.85c7.41,0,10.03,3.36,8.05,10.32l-.83,2.9c-2.17,7.62-7.76,11.78-17.2,12.7l-5.03.5-4.01,13.81-12,1.26,11.76-39.96,16.74-1.42c.89-.08,1.73-.11,2.51-.11ZM166.49,28.85c.58-2.01-.06-2.99-2.03-2.99-.2,0-.42.01-.65.03l-4.03.36-2.93,10.08,4.05-.38c2.48-.23,3.93-1.38,4.56-3.55l1.02-3.54"/>
  <polygon class="st0" points="256.19 54.16 242.04 107.68 235.87 108.62 229.58 132.15 258.39 127.89 252.94 149.25 196.49 158.21 209.09 112.71 210.76 112.44 215.45 111.73 230.49 56.94 256.19 54.16"/>
  <path class="st0" d="M146.88,19.68l-8.57,29.04c-2.27,7.67-9.37,12.43-20.19,13.58-1.33.14-2.57.21-3.71.21-8.32.02-11.75-3.58-9.65-10.44l9.03-29.6,12.21-1.03-8.68,28.78c-.78,2.6.11,3.97,2.51,3.97.23,0,.48-.01.74-.04,2.9-.29,4.94-1.99,5.79-4.83l8.55-28.64,11.98-1.01Z"/>
  <path class="st0" d="M97.79,23.18c8.59,0,11.41,3.82,9.14,11.6l-11.25,1.97c1.19-4.03.35-5.59-2.59-5.59-.27,0-.57.01-.88.04-2.36.21-4.37,1.55-4.88,3.2-.48,1.5.08,2.65,4.53,4.43l4.21,1.72c4.2,1.71,8.94,3.67,6.62,11.26-2.41,7.88-10.21,13.19-21.14,14.35-1.3.14-2.5.21-3.61.21-8.62.02-11.59-4.02-9.19-12.23l12.43-2.32c-1.2,4.55-.49,6.27,2.48,6.26.31,0,.64-.02,1-.06,2.77-.29,4.67-1.74,5.24-3.58.65-2.12-.52-3.33-4.66-5.07l-4.15-1.74c-4.17-1.76-8.4-4.21-6.14-11.17,2.38-7.4,9.96-12.3,19.88-13.14,1.05-.09,2.04-.13,2.96-.13Z"/>
  <path class="st0" d="M200.29,60.21l25.66-2.78-15.19,55-1.67.26-4.78.73-12.64,45.55-30.85,4.89-5.37-41.94c-.04-.29-.08-.6-.1-1.04l-6.2.94c-1.18,4.68-2.43,9.28-3.67,13.48l-9.75,32.55-28.98,4.6,14.38-46.35,6.96-1.07,18.14-58.95,30.89-3.36,5.05,40.64c.39,3.24.66,7.52.73,13.12l2.65-.4c1.77-8.89,3.49-16.55,5.46-23.45l9.28-32.43ZM155.96,120.6l6.07-.93c-.46-4.2-.58-9.47-.22-18.25l-1.63.42c-1.2,5.91-2.64,12.4-4.22,18.76M177.99,122.03c.31-1.55.61-3.07.91-4.72l-2.58.39c0,1.63,0,3.14-.02,4.77l1.68-.44"/>
  <path class="st0" d="M141.59,66.58l-18.31,59.19-7,1.07-5.22,16.71c-6.45,20.65-24.82,34.27-52.48,38.69-4.57.74-8.72,1.11-12.43,1.13-19.4.13-26.74-9.31-20.49-27.46l5.54-16.11,7.6-1.15,21.58-63.27,30.38-3.29-20.33,61.73-7.37,1.13-4.88,14.66c-2.28,6.89-.38,10.51,5.29,10.47.74,0,1.55-.08,2.43-.2,7.4-1.11,12.76-5.89,15.25-13.57l4.8-14.86,7.22-1.1,19.45-60.63,28.96-3.15Z"/>
</svg>